<?xml version="1.0" encoding="utf-8"?>
<!-- Generator: Adobe Illustrator 17.1.0, SVG Export Plug-In . SVG Version: 6.00 Build 0)  -->
<!DOCTYPE svg PUBLIC "-//W3C//DTD SVG 1.1//EN" "http://www.w3.org/Graphics/SVG/1.1/DTD/svg11.dtd">
<svg version="1.1" id="Layer_1" xmlns="http://www.w3.org/2000/svg" xmlns:xlink="http://www.w3.org/1999/xlink" x="0px" y="0px"
	 viewBox="0 0 144.4 145" enable-background="new 0 0 144.4 145" xml:space="preserve">
<g>
	<g>
		<g>
			<path fill="#FCC016" d="M47,51.1c38.8-39,80.7-60.2,93.6-47.4c12.8,12.8-8.2,54.9-47.1,93.9C54.7,136.6,0,145,0,145
				S8.2,90.1,47,51.1z"/>
			<path fill="#EADFD3" d="M88.9,32.3c19.5-19.6,40.5-30.3,47-23.8c6.4,6.4-4.1,27.6-23.6,47.2c-19.5,19.6-47,23.8-47,23.8
				S69.4,51.9,88.9,32.3z"/>
		</g>
	</g>
	<path fill="#E2A425" d="M140.6,3.7L140.6,3.7L0,145c0,0,0,0,0,0s54.7-8.4,93.5-47.4C132.4,58.6,153.4,16.6,140.6,3.7z"/>
	<path fill="#F9CC99" d="M135.9,8.5L135.9,8.5l-70.6,71l0,0c0,0,27.5-4.2,47-23.8C131.8,36,142.4,14.9,135.9,8.5z"/>
</g>
</svg>
