<?xml version="1.0" encoding="utf-8"?>
<!-- Generator: Adobe Illustrator 17.1.0, SVG Export Plug-In . SVG Version: 6.00 Build 0)  -->
<!DOCTYPE svg PUBLIC "-//W3C//DTD SVG 1.1//EN" "http://www.w3.org/Graphics/SVG/1.1/DTD/svg11.dtd">
<svg version="1.1" xmlns="http://www.w3.org/2000/svg" xmlns:xlink="http://www.w3.org/1999/xlink" x="0px" y="0px"
	 viewBox="216 0 792 792" enable-background="new 216 0 792 792" xml:space="preserve">
<g id="Layer_1">
	<g>
		<path fill="#F26227" d="M374.3,633.7c15.6,15.6,28.2,31.5,36.7,45.2c100.8-43.4,259.8-163.1,384.3-287.6
			C972.4,213.8,1008,0,1008,0S794.2,35.6,616.6,212.7C492.1,337.3,372.8,496.3,329.4,597.4C342.7,605.6,358.7,618.2,374.3,633.7z"/>
	</g>
	<g>
		<path fill="#F7941F" d="M374.3,633.7c15.6,15.6,28.2,31.5,36.7,45.2c100.8-43.4,259.8-163.1,384.3-287.6
			C972.4,213.8,1008,0,1008,0S794.2,35.6,616.6,212.7C492.1,337.3,372.8,496.3,329.4,597.4C342.7,605.6,358.7,618.2,374.3,633.7z"/>
	</g>
	<path fill="#8E5322" d="M1008,0c0,0-1.5,0.4-4.1,0.7C985,70,931.7,222,799.7,353.6c-124.2,124.9-283.1,244.2-384,287.6
		c-8.2-13.7-20.8-29.3-36.7-45.2c-11.9-11.9-24.1-22.2-35.2-30c-5.6,10.7-10.7,21.1-14.8,30.8c13.3,8.2,29.3,20.8,45.2,36.7
		c15.6,15.6,28.2,31.5,36.7,45.2C511.7,635.2,670.7,515.5,795.3,391C972.4,213.8,1008,0,1008,0z"/>
	<path fill="#FFFFFF" d="M822.3,186c-28.5-28.5-57.1-52.6-83.8-71.9c-40.4,26.7-81.9,59.3-121.9,99
		C492.1,337.3,372.8,496.3,329.4,597.4c13.3,8.2,29.3,20.8,45.2,36.7c15.6,15.6,28.2,31.5,36.7,45.2
		C512.1,636,671.1,516.3,795.6,391.7c39.3-40,71.9-81.5,98.6-122.3C874.9,243.1,850.5,214.2,822.3,186z"/>
	<path fill="#FFFFFF" d="M822.3,186c-28.5-28.5-57.1-52.6-83.8-71.9c-40.4,26.7-81.9,59.3-121.9,99
		C492.1,337.3,372.8,496.3,329.4,597.4c13.3,8.2,29.3,20.8,45.2,36.7c15.6,15.6,28.2,31.5,36.7,45.2
		C512.1,636,671.1,516.3,795.6,391.7c39.3-40,71.9-81.5,98.6-122.3C874.9,243.1,850.5,214.2,822.3,186z"/>
	<path fill="#E0E5EA" d="M821.6,363.2c1.1-1.1,1.9-2.2,3-3.3c8.2-9.3,15.9-18.2,23.3-27.4c1.1-1.1,1.9-2.6,3-3.7
		c7.4-9.3,14.5-18.5,21.5-27.8c0.7-0.7,1.1-1.9,1.9-2.6c7-9.6,13.7-19.3,20-28.9c-3.3-4.8-7-9.6-10.7-14.5
		c-23.3,33-50.8,66.3-83,98.6C675.6,478.5,516.6,597.8,415.8,641.2c-8.2-13.7-20.8-29.3-36.7-45.2c-11.9-11.9-24.1-22.2-35.2-30l0,0
		c-2.6,5.2-5.2,10-7.4,14.8c-2.6,5.2-5.2,10.7-7.4,15.9c13.3,8.2,29.3,20.8,45.2,36.7c15.6,15.6,28.2,31.5,36.7,45.2
		C511.7,635.2,670.7,515.5,795.3,391C804.5,382.1,813.1,372.8,821.6,363.2z"/>
	<g>
		<g>
			<g>
				<path fill="#F7941F" d="M497.3,425.8c-51.1-51.1-113-56.7-195.3,25.2c-34.1,34.5-65.2,80.1-86,124.9c66-58.9,123.4-56,169-23
					L497.3,425.8z"/>
			</g>
		</g>
	</g>
	<path fill="#C87629" d="M778.6,307.2c-21.5,21.5-56.3,21.5-78.2,0c-21.5-21.5-21.5-56.3,0-78.2c21.5-21.5,56.3-21.5,78.2,0
		C800.5,250.9,800.5,285.7,778.6,307.2z"/>
	<path fill="#E0E5EA" d="M769.3,298c-16.3,16.3-42.6,16.3-58.9,0s-16.3-42.6,0-58.9s42.6-16.3,58.9,0
		C785.6,255,785.6,281.7,769.3,298z"/>
	<path fill="#C87629" d="M582.2,510.7c51.1,51.1,56.7,113-25.2,195.3c-34.1,34.1-79.7,65.2-124.9,86c58.9-66,56-123.4,23-169
		L582.2,510.7z"/>
</g>
<g id="Layer_2" display="none">
	<g display="inline">
		<g>
			<g>
				<path fill="#FDC00F" d="M313.8,602.6c79.3-79.8,164.8-123.3,191-97.1c26.2,26.2-16.7,112.1-95.9,191.9
					c-79.2,79.8-190.9,97.1-190.9,97.1S234.6,682.4,313.8,602.6z"/>
				<path fill="#EADFD3" d="M399.3,564c39.8-40.1,82.8-62,95.9-48.8c13.2,13.2-8.4,56.3-48.2,96.5c-39.8,40.1-96,48.7-96,48.7
					S359.4,604.1,399.3,564z"/>
			</g>
		</g>
		<path fill="#E2A305" d="M504.8,505.6L504.8,505.6l-286.8,289c0,0,0,0,0,0s111.7-17.3,190.9-97.1
			C488.1,617.7,531,531.7,504.8,505.6z"/>
		<path fill="#F9CB98" d="M495.2,515.2L495.2,515.2L351.1,660.4l-0.1,0c0,0,56.2-8.7,96-48.7C486.8,571.5,508.4,528.3,495.2,515.2z"
			/>
	</g>
	<path display="inline" fill="#DFE5EA" d="M639.2,491.8L482.7,648.3c16.1,3.7,29.8,10.7,40.4,21.4c16.9,16.9,24.7,41.2,24.5,70.9
		C619.1,665.8,651.2,571.2,639.2,491.8z"/>
	<path display="inline" fill="#DFE5EA" d="M519.6,372.2L363,528.7c-3.7-16.1-10.7-29.8-21.4-40.4c-16.9-16.9-41.2-24.7-70.9-24.5
		C345.6,392.2,440.2,360.2,519.6,372.2z"/>
	<g display="inline">
		<path fill="#DFE5EA" d="M484.3,648.1l-57.7-63.2l-63.2-57.7l383.4-419.8c50.5-50.5,141.8-75.8,159.6-80.4L1011.4,0l-26.9,105.1
			c-4.6,17.8-29.9,109.1-80.4,159.6l-2.1,2L484.3,648.1z"/>
	</g>
	<g display="inline">
		<path fill="#FFFFFF" d="M456.6,610.1l-24.9-30.3l-30.4-24.9l389.8-406.4c50-50,123-92.8,137.1-100.8L1011.4,0l-47.6,83.3
			c-8.1,14.1-50.8,87-100.8,137l-2.1,2L456.6,610.1z"/>
	</g>
	<path display="inline" fill="#C87629" d="M759.1,96.1l81.1,74l75,82.2c43.1-51.8,65-130.9,69.3-147.3L1011.4,0L906.3,26.9
		C889.9,31.1,810.8,53.1,759.1,96.1z"/>
	<path display="inline" fill="#F7941F" d="M840.2,170.1l34.1,37.4c42.5-48.5,81.9-111.3,89-123.7L1011.4,0h0l-83.8,48.1
		c-12.3,7.1-75.1,46.5-123.6,88.9L840.2,170.1z"/>
	<polygon display="inline" fill="#F7941F" points="582.6,427.7 512.5,363.7 363.3,527.1 426.5,584.8 484.3,648.1 647.6,498.9 	"/>
	<polygon display="inline" fill="#C87629" points="612.6,460.6 582.6,427.7 550.8,398.7 397.6,558.4 426.5,584.8 452.9,613.8 	"/>
	<polygon display="inline" fill="#DFE5EA" points="429.5,587.9 423.5,581.8 576.4,429 582.4,435 	"/>
	<path display="inline" fill="#8E5322" d="M796.3,296.8c-22.6,22.6-59.1,22.6-81.7,0c-22.6-22.6-22.6-59.2,0-81.7
		c22.6-22.6,59.2-22.6,81.7,0C818.9,237.7,818.9,274.2,796.3,296.8z"/>
	<path display="inline" fill="#FFFFFF" d="M786.3,286.9c-17.1,17.1-44.8,17.1-61.8,0c-17.1-17.1-17.1-44.8,0-61.9
		c17.1-17.1,44.8-17.1,61.8,0C803.4,242.1,803.4,269.8,786.3,286.9z"/>
</g>
<g id="Layer_3" display="none">
	<g display="inline">
		<g>
			<g>
				<g>
					<path fill="#FDC00F" d="M423,512.6c62.5-62.9,130-97.2,150.7-76.6c20.7,20.7-13.1,88.5-75.7,151.4
						c-62.5,63-150.7,76.6-150.7,76.6S360.5,575.6,423,512.6z"/>
					<path fill="#EADFD3" d="M490.5,482.1c31.4-31.7,65.3-48.9,75.7-38.5c10.4,10.4-6.6,44.5-38,76.1
						c-31.4,31.6-75.7,38.5-75.7,38.5S459,513.8,490.5,482.1z"/>
				</g>
			</g>
			<path fill="#E2A305" d="M573.7,436L573.7,436l-226.3,228c0,0,0,0,0,0s88.2-13.6,150.7-76.6C560.6,524.5,594.4,456.7,573.7,436z"
				/>
			<path fill="#F9CB98" d="M566.2,443.6L566.2,443.6L452.5,558.2l-0.1,0c0,0,44.3-6.8,75.7-38.5C559.6,488.1,576.6,454,566.2,443.6z
				"/>
		</g>
		<g>
			<g>
				<path fill="#DFE5EA" d="M991.2,19.4c-30.1-30.1-140.4,31.5-246.5,137.5L491.1,449.5l69.9,70l292.6-253.6
					C959.7,159.9,1021.3,49.5,991.2,19.4z"/>
				<path fill="#FFFFFF" d="M991.2,19.4c-11-11-105.8,66.1-211.9,172.1l-266,280.2l25.5,25.5l280.2-266
					C925.1,125.3,1002.1,30.4,991.2,19.4z"/>
				<polygon fill="#1B5E92" points="556.6,516.3 495,454.8 498.1,451.7 559.7,513.2 				"/>
				<g>
					<polygon fill="#FFFFFF" points="648.2,587.3 547.2,520 709.8,357.4 701.4,534.1 					"/>
					<polygon fill="#FFFFFF" points="423.3,362.4 490.6,463.3 653.1,300.8 476.5,309.2 					"/>
				</g>
			</g>
			<path fill="#DC3F14" d="M894.4,115.4l45.8,50.2c49.5-68.1,71.4-125.7,50.9-146.1c-20.5-20.5-78,1.5-146.1,50.9L894.4,115.4z"/>
			<path fill="#FC611F" d="M894.7,115.6l14.7,19.1c55.5-62.1,89-108.1,81.8-115.4c-7.2-7.2-53.2,26.2-115.3,81.7L894.7,115.6z"/>
			<path fill="#FB6020" d="M856.7,201.4c-13.1,13.1-34.4,13.1-47.5,0c-13.1-13.1-13.1-34.4,0-47.5c13.1-13.1,34.4-13.1,47.5,0
				C869.8,167,869.8,188.3,856.7,201.4z"/>
			<path fill="#D2EFFD" d="M851.6,196.3c-10.3,10.3-27,10.3-37.3,0c-10.3-10.3-10.3-27,0-37.3c10.3-10.3,27-10.3,37.3,0
				C861.9,169.3,861.9,186,851.6,196.3z"/>
		</g>
	</g>
</g>
</svg>
