<?xml version="1.0" encoding="utf-8"?>
<!-- Generator: Adobe Illustrator 17.1.0, SVG Export Plug-In . SVG Version: 6.00 Build 0)  -->
<!DOCTYPE svg PUBLIC "-//W3C//DTD SVG 1.1//EN" "http://www.w3.org/Graphics/SVG/1.1/DTD/svg11.dtd">
<svg version="1.1" id="Layer_1" xmlns="http://www.w3.org/2000/svg" xmlns:xlink="http://www.w3.org/1999/xlink" x="0px" y="0px"
	 viewBox="216 2.3 792 792" enable-background="new 216 2.3 792 792" xml:space="preserve">
<g id="icomoon-ignore">
	<line fill="none" stroke="#449FDB" x1="216" y1="-64.2" x2="216" y2="-64.2"/>
</g>
<path fill="#FFFFFF" d="M956,198.9C921.3,138.2,872.1,89,811.4,54.3c-60.7-34.7-127.2-52-199.4-52s-138.7,17.3-199.4,52
	C351.9,89,302.7,138.2,268,198.9c-34.7,60.7-52,127.2-52,199.4s17.3,138.7,52,199.4c34.7,60.7,83.8,109.8,144.5,144.5
	c60.7,34.7,127.2,52,199.4,52s138.7-17.3,199.4-52c60.7-34.7,109.8-83.8,144.5-144.5c34.7-60.7,52-127.2,52-199.4
	S990.7,259.6,956,198.9z M909.7,525.5c-17.3,40.5-40.5,75.2-69.4,104.1c-28.9,28.9-63.6,52-104.1,69.4c-40.5,17.3-83.8,26-127.2,26
	s-86.7-8.7-127.2-26c-40.5-17.3-75.2-40.5-104.1-69.4c-28.9-28.9-52-63.6-69.4-104.1c-17.3-40.5-26-83.8-26-127.2s8.7-89.6,26-130.1
	s37.6-75.2,69.4-104.1c31.8-28.9,63.6-49.1,104.1-66.5c40.5-17.3,83.8-26,127.2-26s86.7,8.7,127.2,26
	c40.5,17.3,75.2,40.5,104.1,69.4c28.9,28.9,52,63.6,69.4,104.1c17.3,40.5,26,83.8,26,127.2S927.1,485,909.7,525.5z"/>
<path fill="#FFFFFF" d="M614.9,132.4c-75.2,0-135.9,26-187.9,78c-52,52-78,115.6-78,187.9s26,135.9,78,187.9
	c52,52,115.6,78,187.9,78c75.2,0,135.9-26,187.9-78c52-52,78-112.7,78-187.9s-26-135.9-78-187.9S687.2,132.4,614.9,132.4z
	 M750.7,537c-37.6,37.6-83.8,57.8-138.7,57.8c-52,0-101.2-20.2-138.7-57.8c-37.6-37.6-57.8-83.8-57.8-138.7s20.2-101.2,57.8-138.7
	C510.8,222,560,201.7,612,201.7c52,0,101.2,20.2,138.7,57.8c37.6,37.6,57.8,83.8,57.8,138.7C808.6,450.3,788.3,499.5,750.7,537z"/>
<path fill="#F7941F" d="M609.1,268.2c-34.7,0-66.5,11.6-92.5,37.6c-26,26-37.6,54.9-37.6,92.5c0,37.6,14.5,66.5,37.6,92.5
	c26,26,54.9,37.6,92.5,37.6c34.7,0,66.5-11.6,92.5-37.6c26-26,37.6-57.8,37.6-92.5c0-34.7-11.6-66.5-37.6-92.5
	C675.6,279.8,646.7,268.2,609.1,268.2z"/>
</svg>
