<?xml version="1.0" encoding="utf-8"?>
<!-- Generator: Adobe Illustrator 17.1.0, SVG Export Plug-In . SVG Version: 6.00 Build 0)  -->
<!DOCTYPE svg PUBLIC "-//W3C//DTD SVG 1.1//EN" "http://www.w3.org/Graphics/SVG/1.1/DTD/svg11.dtd">
<svg version="1.1" id="Layer_1" xmlns="http://www.w3.org/2000/svg" xmlns:xlink="http://www.w3.org/1999/xlink" x="0px" y="0px"
	 viewBox="216 2.3 792 792" enable-background="new 216 2.3 792 792" xml:space="preserve">
<g id="icomoon-ignore">
	<line fill="none" stroke="#449FDB" x1="216" y1="-64.2" x2="216" y2="-64.2"/>
</g>
<g>
	<path fill="#FFFFFF" d="M956,198.9C921.3,138.2,872.1,89,811.4,54.3c-60.7-34.7-127.2-52-199.4-52s-138.7,17.3-199.4,52
		C351.9,89,302.7,138.2,268,198.9c-34.7,60.7-52,127.2-52,199.4s17.3,138.7,52,199.4c34.7,60.7,83.8,109.8,144.5,144.5
		c60.7,34.7,127.2,52,199.4,52s138.7-17.3,199.4-52c60.7-34.7,109.8-83.8,144.5-144.5c34.7-60.7,52-127.2,52-199.4
		S990.7,259.6,956,198.9z M854.8,539.9c-23.1,43.4-57.8,75.2-101.2,101.2S664,678.7,612,678.7s-98.3-14.5-141.6-37.6
		s-75.2-57.8-101.2-101.2s-37.6-89.6-37.6-141.6s14.5-98.3,37.6-141.6c23.1-43.4,57.8-75.2,101.2-101.2S560,117.9,612,117.9
		s98.3,14.5,141.6,37.6s75.2,57.8,101.2,101.2s37.6,89.6,37.6,141.6S880.8,496.6,854.8,539.9z"/>
	<path fill="#F7941F" d="M661.1,198.9h-31.8c-5.8,0-8.7,2.9-11.6,5.8s-5.8,5.8-5.8,11.6v182.1H496.4c-5.8,0-8.7,2.9-11.6,5.8
		c-2.9,2.9-5.8,5.8-5.8,11.6v31.8c0,5.8,2.9,8.7,5.8,11.6s5.8,5.8,11.6,5.8h164.8c5.8,0,8.7-2.9,11.6-5.8s5.8-5.8,5.8-11.6V216.2
		c0-5.8-2.9-8.7-5.8-11.6C669.8,201.7,666.9,198.9,661.1,198.9z"/>
</g>
</svg>
