<?xml version="1.0" encoding="utf-8"?>
<!-- Generator: Adobe Illustrator 17.1.0, SVG Export Plug-In . SVG Version: 6.00 Build 0)  -->
<!DOCTYPE svg PUBLIC "-//W3C//DTD SVG 1.1//EN" "http://www.w3.org/Graphics/SVG/1.1/DTD/svg11.dtd">
<svg version="1.1" id="Layer_1" xmlns="http://www.w3.org/2000/svg" xmlns:xlink="http://www.w3.org/1999/xlink" x="0px" y="0px"
	 viewBox="191.2 0 846.5 792" enable-background="new 191.2 0 846.5 792" xml:space="preserve">
<g id="icomoon-ignore">
	<line fill="none" stroke="#449FDB" x1="191.2" y1="0" x2="191.2" y2="0"/>
</g>
<path fill="#F7941F" d="M191.2,381.1c0-104,17.3-155.9,54.4-155.9c2.5,0,7.4,2.5,19.8,9.9c12.4,7.4,24.8,12.4,42.1,19.8
	c17.3,7.4,34.7,9.9,52,9.9c19.8,0,39.6-2.5,59.4-9.9c-2.5,9.9-2.5,19.8-2.5,29.7c0,42.1,12.4,79.2,34.6,113.9
	c-47,2.5-86.6,19.8-116.3,56.9h-56.9c-24.8,0-44.6-5-61.9-17.3S191.2,405.9,191.2,381.1z"/>
<path fill="#F7941F" d="M248.2,113.8c0-32.2,9.9-56.9,32.2-79.2S329.9,0,362,0s56.9,9.9,79.2,32.2c22.3,22.3,32.2,49.5,32.2,79.2
	s-9.9,59.4-32.2,81.7s-49.5,32.2-79.2,32.2c-29.7,0-59.4-9.9-81.7-32.2C258.1,170.8,248.2,143.6,248.2,113.8z"/>
<path fill="#FFFFFF" d="M305.1,678.1c0-14.8,0-29.7,2.5-44.5c0-14.9,2.5-29.7,5-47c2.5-17.3,7.4-32.2,12.4-47
	c4.9-14.9,9.9-29.7,19.8-42.1c7.4-14.9,17.3-24.8,27.2-34.6s22.3-17.3,37.1-24.8c14.8-7.4,32.2-9.9,49.5-9.9c2.5,0,9.9,2.5,19.8,9.9
	s19.8,12.4,32.2,22.3c12.4,7.4,27.2,14.9,47,22.3s39.6,9.9,59.4,9.9s39.6-2.5,59.4-9.9s34.6-12.4,47-22.3
	c12.4-7.4,22.3-14.9,32.2-22.3c9.9-7.4,14.9-9.9,19.8-9.9c17.3,0,34.6,2.5,49.5,9.9s27.2,14.9,37.1,24.8s19.8,22.3,27.2,34.6
	c7.4,14.9,14.8,27.2,19.8,42.1c5,14.8,7.4,29.7,12.4,47c5,17.3,5,32.2,5,47c0,14.8,2.5,29.7,2.5,44.5c0,34.7-9.9,64.4-32.2,84.2
	C874.3,782.1,847.1,792,810,792H421.4c-34.7,0-64.4-9.9-86.6-29.7C315,740,305.1,712.8,305.1,678.1L305.1,678.1z"/>
<path fill="#FFFFFF" d="M446.2,282.1c0-47,17.3-86.6,49.5-118.8s74.2-49.5,118.8-49.5c44.5,0,86.6,17.3,118.8,49.5
	s49.5,74.2,49.5,118.8s-17.3,86.6-49.5,118.8s-74.2,49.5-118.8,49.5s-86.6-17.3-118.8-49.5S446.2,329.2,446.2,282.1z"/>
<path fill="#F7941F" d="M758,113.8c0-32.2,9.9-56.9,32.2-79.2c22.3-22.3,49.5-32.2,79.2-32.2c29.7,0,56.9,9.9,79.2,32.2
	c22.3,22.3,32.2,49.5,32.2,79.2s-9.9,56.9-32.2,79.2c-22.3,22.3-49.5,32.2-79.2,32.2c-29.7,0-56.9-9.9-79.2-32.2
	C767.9,170.8,758,143.6,758,113.8z"/>
<path fill="#F7941F" d="M777.8,396c24.8-34.6,34.7-71.8,34.7-113.9c0-7.4,0-17.3-2.5-29.7c19.8,7.4,39.6,9.9,59.4,9.9
	c17.3,0,34.7-2.5,52-9.9c17.3-7.4,32.2-12.4,42.1-19.8s17.3-9.9,19.8-9.9c37.1,0,54.5,52,54.5,155.9c0,22.3-7.4,39.6-24.8,52
	S975.8,448,951.1,448h-59.4C864.5,415.8,824.9,398.5,777.8,396z"/>
</svg>
